<?xml version="1.0" standalone="no"?>
<!DOCTYPE svg PUBLIC "-//W3C//DTD SVG 20010904//EN"
 "http://www.w3.org/TR/2001/REC-SVG-20010904/DTD/svg10.dtd">
<svg version="1.0" xmlns="http://www.w3.org/2000/svg"
 width="766.000000pt" height="766.000000pt" viewBox="0 0 766.000000 766.000000"
 preserveAspectRatio="xMidYMid meet">
<metadata>
Created by potrace 1.14, written by Peter Selinger 2001-2017
</metadata>
<g transform="translate(0.000000,766.000000) scale(0.100000,-0.100000)"
fill="#000000" stroke="none">
<path d="M3445 7325 c-504 -54 -999 -220 -1428 -480 -266 -161 -489 -338 -702
-556 -527 -541 -849 -1192 -966 -1954 -27 -179 -38 -617 -19 -817 62 -690 319
-1330 752 -1876 128 -160 385 -418 548 -548 506 -403 1077 -646 1743 -741 175
-25 729 -25 904 0 666 95 1237 338 1743 741 150 120 416 383 526 521 387 484
629 1012 734 1595 66 370 68 855 5 1223 -141 816 -575 1570 -1208 2096 -169
139 -270 211 -452 320 -440 263 -921 424 -1430 476 -172 18 -582 18 -750 0z"/>
</g>
</svg>
